<svg xmlns="http://www.w3.org/2000/svg" xmlns:xlink="http://www.w3.org/1999/xlink" width="500" zoomAndPan="magnify" viewBox="0 0 375 374.999991" height="500" preserveAspectRatio="xMidYMid meet" version="1.0"><defs><g/><clipPath id="432f97e126"><path d="M 3.257812 3.257812 L 370 3.257812 L 370 370 L 3.257812 370 Z M 3.257812 3.257812 " clip-rule="nonzero"/></clipPath><clipPath id="861bcc89a1"><path d="M 108 92 L 166 92 L 166 211 L 108 211 Z M 108 92 " clip-rule="nonzero"/></clipPath><clipPath id="9a3ac63673"><path d="M 62.128906 142.039062 L 115.988281 88.175781 L 199.027344 171.214844 L 145.164062 225.078125 Z M 62.128906 142.039062 " clip-rule="nonzero"/></clipPath><clipPath id="44e8c4710f"><path d="M 154.410156 199.480469 C 152.328125 179.15625 151.023438 175.507812 148.289062 170.429688 C 144.117188 162.351562 128.617188 148.148438 128.226562 142.027344 C 128.09375 139.292969 130.046875 136.554688 131.613281 135.773438 C 133.046875 135.121094 135.390625 135.382812 137.34375 137.335938 C 144.640625 143.589844 165.355469 195.832031 163.921875 204.5625 C 163.660156 206.90625 162.097656 208.210938 160.664062 208.601562 C 159.230469 208.992188 156.757812 208.078125 155.191406 205.996094 C 151.542969 201.304688 152.066406 185.148438 148.9375 172.644531 C 144.902344 155.835938 129.65625 123.136719 130.960938 114.539062 C 131.480469 111.933594 132.914062 109.976562 134.347656 109.585938 C 135.910156 109.328125 138.386719 109.976562 139.820312 112.453125 C 145.160156 121.703125 140.472656 196.222656 136.824219 206.644531 C 136.042969 208.992188 135.261719 210.035156 133.957031 210.292969 C 132.652344 210.816406 130.179688 210.164062 128.746094 208.210938 C 124.445312 202.605469 125.226562 176.8125 122.101562 159.613281 C 118.714844 140.074219 106.46875 105.417969 108.550781 97.082031 C 109.203125 94.605469 110.898438 93.171875 112.199219 92.910156 C 113.632812 92.78125 115.195312 93.824219 116.890625 96.039062 C 122.882812 104.636719 132.523438 155.707031 137.476562 175.25 C 140.472656 186.84375 145.03125 197.917969 144.117188 203 C 143.726562 204.953125 142.554688 206.386719 141.253906 206.90625 C 139.820312 207.296875 137.605469 206.644531 135.910156 204.691406 C 130.832031 198.308594 123.664062 152.578125 127.183594 145.152344 C 128.355469 142.679688 131.089844 141.507812 132.652344 141.765625 C 133.957031 142.027344 136.042969 144.632812 135.910156 146.066406 C 135.78125 147.5 132.785156 150.496094 131.222656 150.496094 C 129.789062 150.363281 126.921875 146.976562 127.050781 145.542969 C 127.183594 144.113281 130.699219 141.636719 132.132812 141.765625 C 133.566406 141.898438 134.609375 143.199219 135.910156 145.542969 C 139.429688 153.230469 146.074219 195.050781 144.117188 203 C 143.597656 205.082031 142.554688 206.386719 141.253906 206.90625 C 139.820312 207.296875 137.734375 206.777344 135.910156 204.691406 C 127.964844 195.441406 105.816406 108.675781 108.550781 97.082031 C 109.335938 94.476562 110.898438 93.171875 112.199219 92.910156 C 113.632812 92.78125 115.328125 93.953125 116.890625 96.039062 C 121.972656 103.464844 127.050781 139.03125 130.570312 158.441406 C 133.566406 175.507812 138.648438 199.609375 136.824219 206.644531 C 136.300781 208.730469 135.261719 210.035156 133.957031 210.292969 C 132.652344 210.816406 130.046875 210.292969 128.746094 208.210938 C 123.273438 199.609375 127.050781 123.917969 131.089844 113.367188 C 132.132812 111.019531 133.046875 109.847656 134.347656 109.585938 C 135.910156 109.328125 137.996094 110.367188 139.820312 112.453125 C 144.117188 117.535156 148.027344 137.597656 151.675781 149.84375 C 155.0625 161.570312 159.101562 174.207031 161.1875 184.109375 C 162.75 191.664062 165.355469 200.523438 163.921875 204.5625 C 163.269531 206.777344 161.1875 208.601562 159.492188 208.730469 C 158.1875 208.992188 156.886719 207.949219 155.191406 205.996094 C 149.070312 198.828125 128.355469 151.796875 128.226562 142.027344 C 128.226562 139.160156 129.007812 137.335938 130.441406 136.425781 C 131.871094 135.511719 134.21875 135.253906 136.433594 136.425781 C 141.511719 138.898438 150.632812 152.1875 155.191406 159.613281 C 158.578125 165.609375 160.402344 171.339844 162.226562 177.074219 C 163.792969 182.542969 165.355469 188.796875 165.484375 193.355469 C 165.746094 196.484375 165.613281 199.480469 164.703125 201.433594 C 164.183594 202.738281 163.53125 203.910156 162.488281 204.429688 C 161.054688 205.082031 158.710938 205.34375 157.40625 204.5625 C 155.972656 203.910156 154.410156 199.480469 154.410156 199.480469 " clip-rule="nonzero"/></clipPath><clipPath id="03dc337f6d"><path d="M 77 78 L 296 78 L 296 300 L 77 300 Z M 77 78 " clip-rule="nonzero"/></clipPath><clipPath id="a278b72b21"><path d="M 23.101562 183.890625 L 174.34375 32.648438 L 343.632812 201.941406 L 192.394531 353.179688 Z M 23.101562 183.890625 " clip-rule="nonzero"/></clipPath><clipPath id="daf98ae059"><path d="M 181.640625 250.421875 C 155.582031 242.34375 111.027344 218.109375 96.566406 199.742188 C 86.144531 186.453125 81.976562 167.953125 81.0625 156.359375 C 80.410156 148.671875 82.625 143.070312 84.449219 136.816406 C 86.273438 130.5625 89.140625 124.308594 92.398438 118.707031 C 95.785156 112.976562 99.824219 107.632812 104.515625 102.941406 C 108.941406 98.253906 114.414062 94.085938 119.886719 90.695312 C 125.488281 87.179688 131.613281 84.445312 137.867188 82.359375 C 143.988281 80.40625 150.761719 79.101562 157.277344 78.582031 C 163.792969 78.058594 170.566406 78.582031 177.078125 79.621094 C 183.464844 80.796875 189.847656 82.75 195.839844 85.355469 C 201.832031 87.960938 207.695312 91.476562 212.90625 95.386719 C 218.117188 99.296875 222.9375 104.117188 226.976562 109.195312 C 231.144531 114.40625 234.664062 120.011719 237.398438 126.132812 C 240.136719 131.996094 242.21875 138.507812 243.390625 144.894531 C 244.824219 151.277344 246.910156 156.488281 244.824219 164.566406 C 240.394531 181.5 201.832031 237.261719 198.707031 235.699219 C 195.449219 234.265625 217.207031 171.859375 226.324219 154.402344 C 231.277344 145.285156 235.183594 136.425781 241.046875 134.992188 C 246.257812 133.949219 253.554688 140.722656 259.027344 144.632812 C 264.628906 148.410156 269.839844 153.101562 274.398438 158.183594 C 278.957031 163.261719 282.867188 168.996094 285.992188 174.988281 C 289.121094 180.980469 291.597656 187.625 293.160156 194.140625 C 294.851562 200.785156 295.632812 207.820312 295.632812 214.59375 C 295.632812 221.367188 294.722656 228.273438 293.160156 234.785156 C 291.464844 241.429688 288.988281 248.074219 285.734375 253.9375 C 282.605469 259.929688 278.699219 265.664062 274.136719 270.742188 C 269.578125 275.824219 264.367188 280.515625 258.765625 284.292969 C 253.292969 288.203125 247.039062 291.328125 240.65625 293.804688 C 234.402344 296.148438 227.5 297.84375 220.722656 298.625 C 214.078125 299.535156 207.042969 299.535156 200.398438 298.625 C 193.625 297.84375 187.503906 299.015625 180.46875 293.804688 C 164.574219 281.558594 129.007812 221.496094 127.183594 199.609375 C 126.140625 188.667969 131.871094 181.632812 136.171875 173.683594 C 140.472656 165.738281 146.464844 158.183594 153.109375 152.058594 C 159.753906 145.933594 167.699219 140.59375 176.039062 136.945312 C 184.246094 133.167969 193.625 130.824219 202.613281 129.910156 C 211.605469 129 221.113281 129.652344 229.972656 131.734375 C 238.832031 133.820312 247.691406 137.46875 255.378906 142.289062 C 263.066406 146.847656 270.230469 153.230469 276.09375 160.136719 C 281.824219 167.171875 286.777344 175.507812 290.03125 183.976562 C 293.160156 192.316406 295.113281 201.824219 295.503906 210.816406 C 295.894531 219.804688 294.851562 229.445312 292.246094 238.042969 C 289.773438 246.773438 285.601562 255.371094 280.390625 262.925781 C 275.179688 270.222656 268.535156 277.128906 261.242188 282.597656 C 254.074219 287.941406 245.476562 292.371094 236.878906 295.234375 C 228.28125 297.84375 218.640625 299.40625 209.648438 299.273438 C 200.660156 299.144531 191.148438 297.449219 182.683594 294.453125 C 174.082031 291.589844 165.746094 286.898438 158.578125 281.296875 C 151.414062 275.695312 144.902344 268.660156 139.949219 261.101562 C 134.867188 253.675781 130.960938 244.816406 128.746094 236.089844 C 126.269531 227.359375 125.488281 217.71875 126.140625 208.730469 C 126.53125 199.742188 128.875 190.359375 132.261719 182.023438 C 135.652344 173.683594 140.730469 165.476562 146.722656 158.703125 C 152.585938 151.796875 160.011719 145.675781 167.960938 141.113281 C 175.648438 136.554688 184.636719 133.039062 193.496094 131.214844 C 202.355469 129.390625 211.996094 129.128906 220.984375 130.042969 C 229.972656 131.214844 239.222656 133.949219 247.300781 137.859375 C 255.507812 141.636719 263.457031 147.238281 269.96875 153.492188 C 276.351562 159.875 282.085938 167.433594 286.253906 175.507812 C 290.421875 183.585938 296.546875 200.652344 294.722656 201.695312 C 291.335938 203.519531 238.570312 137.988281 241.046875 134.992188 C 242.21875 133.558594 253.554688 140.722656 259.027344 144.632812 C 264.628906 148.410156 269.839844 153.101562 274.398438 158.183594 C 278.957031 163.261719 282.867188 168.996094 285.992188 174.988281 C 289.121094 180.980469 291.597656 187.625 293.160156 194.140625 C 294.851562 200.785156 295.632812 207.820312 295.632812 214.59375 C 295.632812 221.367188 294.722656 228.273438 293.160156 234.785156 C 291.464844 241.429688 288.988281 248.074219 285.734375 253.9375 C 282.605469 259.929688 278.699219 265.664062 274.136719 270.742188 C 269.578125 275.824219 264.367188 280.515625 258.765625 284.292969 C 253.292969 288.203125 247.039062 291.328125 240.65625 293.804688 C 234.402344 296.148438 227.5 297.84375 220.722656 298.625 C 214.078125 299.535156 208.609375 299.273438 200.398438 298.625 C 187.503906 297.449219 167.960938 296.929688 151.152344 289.765625 C 129.65625 280.515625 96.4375 263.1875 84.582031 241.171875 C 72.726562 218.890625 79.890625 174.46875 81.0625 156.359375 C 81.714844 147.367188 82.625 143.070312 84.449219 136.816406 C 86.273438 130.5625 89.140625 124.308594 92.398438 118.707031 C 95.785156 112.976562 99.824219 107.632812 104.382812 103.074219 C 108.941406 98.253906 114.414062 94.085938 119.886719 90.695312 C 125.488281 87.179688 131.613281 84.445312 137.867188 82.359375 C 143.988281 80.40625 150.761719 79.101562 157.277344 78.582031 C 163.660156 78.191406 170.566406 78.582031 177.078125 79.621094 C 183.464844 80.796875 189.847656 82.75 195.839844 85.355469 C 201.832031 87.960938 207.695312 91.476562 212.90625 95.386719 C 218.117188 99.296875 222.9375 104.117188 226.976562 109.195312 C 231.144531 114.40625 234.664062 120.011719 237.398438 126.132812 C 240.136719 131.996094 242.21875 138.507812 243.390625 144.894531 C 244.824219 151.277344 245.476562 160.265625 244.824219 164.566406 C 244.566406 166.910156 244.175781 169.386719 243 169.515625 C 238.570312 169.777344 198.054688 96.429688 203.789062 89.65625 C 207.175781 85.746094 225.933594 95.125 234.402344 99.164062 C 241.046875 102.160156 245.738281 105.546875 250.6875 109.71875 C 255.636719 113.886719 260.199219 118.707031 264.105469 123.917969 C 267.753906 129.128906 271.140625 134.863281 273.488281 140.855469 C 275.960938 146.71875 277.785156 153.230469 278.699219 159.613281 C 279.609375 166 279.742188 172.644531 279.21875 179.15625 C 278.566406 185.539062 277.265625 192.054688 275.179688 198.046875 C 272.964844 204.171875 270.101562 210.164062 266.582031 215.503906 C 262.933594 220.976562 258.636719 226.058594 253.945312 230.488281 C 249.386719 234.785156 244.042969 238.824219 238.3125 241.953125 C 232.839844 245.078125 226.585938 247.683594 220.332031 249.246094 C 214.078125 251.070312 207.566406 252.113281 201.179688 252.242188 C 194.667969 252.503906 181.640625 250.421875 181.640625 250.421875 " clip-rule="nonzero"/></clipPath></defs><g clip-path="url(#432f97e126)"><path fill="#000000" d="M 360.578125 239.894531 L 240.046875 360.421875 C 239.339844 361.125 238.601562 361.792969 237.832031 362.421875 C 237.058594 363.050781 236.257812 363.640625 235.429688 364.195312 C 234.601562 364.746094 233.746094 365.253906 232.867188 365.722656 C 231.988281 366.191406 231.085938 366.617188 230.167969 366.996094 C 229.246094 367.375 228.308594 367.707031 227.355469 367.996094 C 226.402344 368.285156 225.4375 368.527344 224.457031 368.71875 C 223.480469 368.914062 222.496094 369.058594 221.507812 369.15625 C 220.515625 369.253906 219.519531 369.300781 218.523438 369.300781 C 217.527344 369.300781 216.535156 369.253906 215.542969 369.15625 C 214.550781 369.058594 213.566406 368.914062 212.589844 368.71875 C 211.613281 368.527344 210.648438 368.285156 209.695312 367.996094 C 208.742188 367.707031 207.804688 367.375 206.882812 366.996094 C 205.960938 366.617188 205.0625 366.191406 204.183594 365.722656 C 203.304688 365.253906 202.449219 364.746094 201.621094 364.195312 C 200.789062 363.640625 199.988281 363.050781 199.21875 362.421875 C 198.445312 361.792969 197.707031 361.125 197 360.421875 L 24.542969 187.957031 C 21.351562 184.398438 18.484375 180.589844 15.949219 176.539062 C 13.414062 172.484375 11.246094 168.246094 9.441406 163.816406 C 7.636719 159.390625 6.226562 154.84375 5.207031 150.171875 C 4.1875 145.5 3.574219 140.777344 3.371094 136 L 4.558594 34.902344 C 4.578125 33.898438 4.648438 32.898438 4.761719 31.902344 C 4.878906 30.90625 5.039062 29.917969 5.25 28.9375 C 5.460938 27.957031 5.714844 26.988281 6.019531 26.035156 C 6.324219 25.078125 6.671875 24.140625 7.0625 23.21875 C 7.457031 22.292969 7.894531 21.394531 8.375 20.511719 C 8.851562 19.632812 9.375 18.777344 9.933594 17.945312 C 10.496094 17.117188 11.097656 16.3125 11.734375 15.539062 C 12.375 14.769531 13.050781 14.027344 13.757812 13.320312 C 14.46875 12.609375 15.210938 11.9375 15.984375 11.300781 C 16.757812 10.664062 17.5625 10.066406 18.394531 9.507812 C 19.226562 8.945312 20.082031 8.425781 20.964844 7.949219 C 21.847656 7.472656 22.75 7.039062 23.671875 6.644531 C 24.59375 6.253906 25.535156 5.910156 26.492188 5.609375 C 27.449219 5.308594 28.417969 5.050781 29.398438 4.84375 C 30.378906 4.636719 31.367188 4.476562 32.363281 4.363281 C 33.359375 4.25 34.359375 4.183594 35.359375 4.167969 L 136.15625 3.15625 C 140.929688 3.371094 145.65625 3.992188 150.324219 5.019531 C 154.996094 6.046875 159.542969 7.464844 163.96875 9.269531 C 168.394531 11.078125 172.636719 13.25 176.6875 15.789062 C 180.742188 18.324219 184.550781 21.1875 188.109375 24.378906 L 360.578125 196.847656 C 361.28125 197.554688 361.945312 198.292969 362.574219 199.0625 C 363.207031 199.835938 363.796875 200.636719 364.347656 201.464844 C 364.898438 202.292969 365.410156 203.148438 365.878906 204.027344 C 366.347656 204.90625 366.769531 205.808594 367.148438 206.730469 C 367.53125 207.648438 367.863281 208.585938 368.152344 209.539062 C 368.441406 210.492188 368.679688 211.460938 368.875 212.4375 C 369.066406 213.414062 369.214844 214.398438 369.308594 215.390625 C 369.40625 216.378906 369.457031 217.375 369.457031 218.371094 C 369.457031 219.367188 369.40625 220.359375 369.308594 221.351562 C 369.214844 222.34375 369.066406 223.328125 368.875 224.304688 C 368.679688 225.28125 368.441406 226.246094 368.152344 227.199219 C 367.863281 228.152344 367.53125 229.089844 367.148438 230.011719 C 366.769531 230.933594 366.347656 231.832031 365.878906 232.710938 C 365.410156 233.589844 364.898438 234.445312 364.347656 235.273438 C 363.796875 236.105469 363.207031 236.90625 362.574219 237.675781 C 361.945312 238.449219 361.28125 239.1875 360.578125 239.894531 Z M 85.507812 64.539062 C 85.507812 63.828125 85.472656 63.117188 85.402344 62.40625 C 85.332031 61.699219 85.230469 60.996094 85.089844 60.296875 C 84.953125 59.597656 84.777344 58.90625 84.570312 58.226562 C 84.367188 57.542969 84.125 56.875 83.855469 56.214844 C 83.582031 55.558594 83.277344 54.914062 82.941406 54.289062 C 82.605469 53.660156 82.238281 53.046875 81.84375 52.457031 C 81.449219 51.863281 81.023438 51.292969 80.574219 50.742188 C 80.121094 50.191406 79.644531 49.664062 79.140625 49.160156 C 78.636719 48.65625 78.109375 48.179688 77.558594 47.726562 C 77.007812 47.277344 76.4375 46.851562 75.84375 46.457031 C 75.253906 46.058594 74.644531 45.695312 74.015625 45.359375 C 73.386719 45.023438 72.746094 44.71875 72.085938 44.445312 C 71.429688 44.171875 70.757812 43.933594 70.078125 43.726562 C 69.394531 43.519531 68.707031 43.347656 68.007812 43.207031 C 67.308594 43.070312 66.605469 42.964844 65.894531 42.894531 C 65.1875 42.824219 64.476562 42.789062 63.765625 42.789062 C 63.050781 42.789062 62.34375 42.824219 61.632812 42.894531 C 60.925781 42.964844 60.21875 43.070312 59.523438 43.207031 C 58.824219 43.347656 58.132812 43.519531 57.453125 43.726562 C 56.769531 43.933594 56.101562 44.171875 55.441406 44.445312 C 54.785156 44.71875 54.140625 45.023438 53.511719 45.355469 C 52.886719 45.691406 52.273438 46.058594 51.683594 46.453125 C 51.089844 46.851562 50.519531 47.273438 49.96875 47.726562 C 49.417969 48.175781 48.890625 48.65625 48.386719 49.160156 C 47.882812 49.664062 47.40625 50.191406 46.953125 50.738281 C 46.503906 51.289062 46.078125 51.863281 45.683594 52.453125 C 45.289062 53.046875 44.921875 53.65625 44.585938 54.285156 C 44.25 54.914062 43.945312 55.554688 43.671875 56.214844 C 43.402344 56.871094 43.160156 57.542969 42.953125 58.222656 C 42.75 58.90625 42.574219 59.59375 42.4375 60.292969 C 42.296875 60.992188 42.191406 61.695312 42.125 62.402344 C 42.054688 63.113281 42.019531 63.824219 42.019531 64.535156 C 42.019531 65.246094 42.054688 65.957031 42.125 66.667969 C 42.195312 67.375 42.296875 68.078125 42.4375 68.777344 C 42.574219 69.476562 42.75 70.167969 42.957031 70.847656 C 43.164062 71.53125 43.402344 72.199219 43.675781 72.859375 C 43.949219 73.515625 44.25 74.160156 44.585938 74.785156 C 44.921875 75.414062 45.289062 76.023438 45.683594 76.617188 C 46.082031 77.210938 46.503906 77.78125 46.957031 78.332031 C 47.40625 78.882812 47.886719 79.410156 48.390625 79.910156 C 48.894531 80.414062 49.421875 80.894531 49.972656 81.34375 C 50.523438 81.796875 51.09375 82.21875 51.683594 82.617188 C 52.277344 83.011719 52.886719 83.378906 53.515625 83.710938 C 54.144531 84.046875 54.789062 84.351562 55.445312 84.625 C 56.101562 84.898438 56.773438 85.136719 57.453125 85.34375 C 58.136719 85.550781 58.828125 85.722656 59.523438 85.863281 C 60.222656 86 60.925781 86.105469 61.636719 86.175781 C 62.34375 86.242188 63.054688 86.277344 63.765625 86.277344 C 64.480469 86.277344 65.191406 86.242188 65.898438 86.175781 C 66.605469 86.105469 67.308594 86 68.007812 85.859375 C 68.707031 85.722656 69.398438 85.550781 70.078125 85.34375 C 70.757812 85.136719 71.429688 84.898438 72.085938 84.625 C 72.746094 84.351562 73.386719 84.046875 74.015625 83.710938 C 74.644531 83.375 75.253906 83.011719 75.847656 82.617188 C 76.4375 82.21875 77.007812 81.796875 77.558594 81.34375 C 78.109375 80.894531 78.636719 80.414062 79.140625 79.910156 C 79.644531 79.40625 80.121094 78.882812 80.574219 78.332031 C 81.023438 77.78125 81.449219 77.210938 81.84375 76.617188 C 82.238281 76.023438 82.605469 75.414062 82.941406 74.789062 C 83.277344 74.160156 83.582031 73.515625 83.851562 72.859375 C 84.125 72.199219 84.363281 71.53125 84.570312 70.847656 C 84.777344 70.167969 84.949219 69.476562 85.089844 68.78125 C 85.230469 68.082031 85.332031 67.378906 85.402344 66.667969 C 85.472656 65.960938 85.507812 65.25 85.507812 64.539062 Z M 266.613281 266.320312 C 267.320312 265.613281 267.949219 264.847656 268.503906 264.015625 C 269.058594 263.183594 269.527344 262.304688 269.910156 261.382812 C 270.292969 260.460938 270.582031 259.507812 270.777344 258.527344 C 270.972656 257.546875 271.070312 256.558594 271.070312 255.558594 C 271.070312 254.558594 270.972656 253.566406 270.777344 252.589844 C 270.582031 251.609375 270.292969 250.65625 269.910156 249.730469 C 269.527344 248.808594 269.058594 247.929688 268.503906 247.101562 C 267.949219 246.269531 267.320312 245.5 266.613281 244.792969 L 255.589844 233.769531 C 260.160156 226.757812 263.359375 219.164062 265.183594 210.996094 C 265.667969 209.195312 266.03125 207.371094 266.273438 205.523438 C 266.519531 203.675781 266.644531 201.820312 266.644531 199.957031 C 266.648438 198.089844 266.53125 196.234375 266.292969 194.386719 C 266.054688 192.539062 265.699219 190.714844 265.222656 188.910156 C 264.746094 187.109375 264.15625 185.34375 263.449219 183.621094 C 262.746094 181.894531 261.929688 180.222656 261.007812 178.601562 C 260.085938 176.984375 259.0625 175.429688 257.9375 173.945312 C 256.8125 172.457031 255.597656 171.050781 254.289062 169.722656 C 252.4375 167.875 250.433594 166.207031 248.28125 164.71875 C 246.128906 163.230469 243.859375 161.945312 241.476562 160.867188 C 239.089844 159.785156 236.628906 158.925781 234.089844 158.289062 C 231.554688 157.652344 228.976562 157.246094 226.367188 157.070312 C 219.355469 156.617188 212.488281 157.394531 205.757812 159.40625 L 205.707031 159.429688 C 199.96875 161.234375 194.570312 163.765625 189.511719 167.023438 L 189.460938 167.039062 C 185.097656 169.878906 181.085938 173.140625 177.417969 176.832031 C 175.21875 179.050781 172.855469 181.070312 170.320312 182.894531 C 167.53125 184.882812 164.519531 186.433594 161.28125 187.546875 L 161.242188 187.554688 C 158.210938 188.546875 155.105469 188.890625 151.933594 188.582031 L 151.882812 188.582031 C 150.28125 188.453125 148.742188 188.066406 147.269531 187.421875 C 145.796875 186.78125 144.46875 185.921875 143.28125 184.839844 C 142.40625 183.855469 141.679688 182.777344 141.09375 181.601562 C 140.507812 180.421875 140.085938 179.191406 139.832031 177.902344 C 139.574219 176.613281 139.492188 175.3125 139.578125 174.003906 C 139.667969 172.691406 139.929688 171.414062 140.359375 170.171875 C 141.316406 166.476562 142.75 162.972656 144.660156 159.667969 C 146.570312 156.359375 148.882812 153.363281 151.601562 150.683594 C 153.585938 148.988281 155.703125 147.480469 157.953125 146.15625 L 158.753906 145.640625 C 161.554688 143.921875 164.503906 142.5 167.59375 141.375 C 170.476562 140.292969 173.457031 139.738281 176.535156 139.71875 C 177.53125 139.71875 178.519531 139.617188 179.5 139.421875 C 180.480469 139.226562 181.429688 138.933594 182.351562 138.550781 C 183.273438 138.167969 184.148438 137.699219 184.976562 137.140625 C 185.804688 136.585938 186.574219 135.953125 187.277344 135.246094 C 187.980469 134.542969 188.609375 133.773438 189.164062 132.941406 C 189.71875 132.109375 190.1875 131.234375 190.566406 130.3125 C 190.949219 129.390625 191.234375 128.4375 191.429688 127.460938 C 191.625 126.480469 191.71875 125.492188 191.71875 124.492188 C 191.71875 123.496094 191.621094 122.507812 191.425781 121.527344 C 191.230469 120.546875 190.941406 119.597656 190.558594 118.675781 C 190.179688 117.753906 189.710938 116.878906 189.15625 116.046875 C 188.601562 115.21875 187.972656 114.449219 187.265625 113.742188 C 186.558594 113.039062 185.792969 112.40625 184.960938 111.851562 C 184.132812 111.296875 183.257812 110.828125 182.335938 110.445312 C 181.414062 110.0625 180.460938 109.773438 179.484375 109.578125 C 178.503906 109.382812 177.515625 109.285156 176.519531 109.285156 L 176.492188 109.285156 C 169.710938 109.316406 163.152344 110.527344 156.808594 112.917969 C 151.71875 114.789062 146.878906 117.164062 142.285156 120.042969 L 142.023438 120.214844 L 131.066406 109.257812 C 130.359375 108.550781 129.59375 107.917969 128.761719 107.363281 C 127.929688 106.804688 127.054688 106.335938 126.128906 105.953125 C 125.207031 105.570312 124.253906 105.28125 123.273438 105.085938 C 122.292969 104.890625 121.300781 104.792969 120.300781 104.789062 C 119.300781 104.789062 118.3125 104.886719 117.332031 105.082031 C 116.347656 105.277344 115.398438 105.566406 114.472656 105.949219 C 113.550781 106.332031 112.671875 106.800781 111.839844 107.355469 C 111.007812 107.910156 110.238281 108.542969 109.53125 109.25 C 108.824219 109.957031 108.195312 110.726562 107.640625 111.558594 C 107.082031 112.390625 106.613281 113.269531 106.234375 114.191406 C 105.851562 115.117188 105.5625 116.070312 105.367188 117.050781 C 105.171875 118.03125 105.074219 119.023438 105.078125 120.023438 C 105.078125 121.023438 105.175781 122.011719 105.371094 122.992188 C 105.566406 123.972656 105.859375 124.925781 106.242188 125.847656 C 106.625 126.773438 107.09375 127.648438 107.652344 128.480469 C 108.207031 129.3125 108.839844 130.078125 109.546875 130.785156 L 120.191406 141.425781 C 115.71875 148.214844 112.546875 155.5625 110.671875 163.472656 C 110.171875 165.339844 109.796875 167.230469 109.546875 169.144531 C 109.292969 171.058594 109.160156 172.984375 109.15625 174.914062 C 109.148438 176.847656 109.265625 178.769531 109.503906 180.6875 C 109.746094 182.605469 110.105469 184.496094 110.589844 186.367188 C 111.074219 188.238281 111.675781 190.070312 112.390625 191.863281 C 113.109375 193.65625 113.941406 195.394531 114.882812 197.082031 C 115.824219 198.769531 116.871094 200.386719 118.019531 201.941406 C 119.167969 203.492188 120.414062 204.964844 121.753906 206.359375 C 123.566406 208.128906 125.515625 209.734375 127.601562 211.175781 C 129.6875 212.613281 131.882812 213.867188 134.183594 214.929688 C 136.484375 215.996094 138.859375 216.859375 141.308594 217.515625 C 143.753906 218.175781 146.242188 218.625 148.765625 218.859375 C 156.3125 219.640625 163.683594 218.832031 170.878906 216.4375 C 177.023438 214.371094 182.734375 211.449219 188.007812 207.675781 C 191.910156 204.871094 195.554688 201.765625 198.9375 198.359375 C 201.074219 196.203125 203.414062 194.296875 205.953125 192.632812 C 208.703125 190.878906 211.632812 189.5 214.742188 188.5 C 217.875 187.59375 221.066406 187.246094 224.320312 187.453125 C 225.910156 187.5625 227.433594 187.945312 228.886719 188.597656 C 230.339844 189.253906 231.636719 190.140625 232.769531 191.257812 C 234.121094 192.617188 237.304688 195.792969 235.417969 204.660156 C 234.480469 208.453125 233.046875 212.046875 231.121094 215.449219 C 229.199219 218.847656 226.851562 221.925781 224.082031 224.683594 C 221.667969 226.871094 219.109375 228.875 216.40625 230.695312 C 213.75 232.421875 210.945312 233.863281 208 235.027344 C 205.164062 236.117188 202.238281 236.5 199.21875 236.171875 C 198.222656 236.101562 197.226562 236.128906 196.234375 236.25 C 195.242188 236.375 194.273438 236.59375 193.324219 236.910156 C 192.375 237.226562 191.46875 237.628906 190.597656 238.125 C 189.730469 238.617188 188.917969 239.191406 188.164062 239.84375 C 187.40625 240.5 186.722656 241.21875 186.109375 242.007812 C 185.496094 242.796875 184.964844 243.640625 184.515625 244.53125 C 184.070312 245.425781 183.710938 246.355469 183.449219 247.316406 C 183.183594 248.28125 183.015625 249.261719 182.941406 250.257812 C 182.871094 251.253906 182.894531 252.25 183.019531 253.242188 C 183.144531 254.230469 183.363281 255.203125 183.679688 256.152344 C 183.992188 257.097656 184.398438 258.007812 184.890625 258.875 C 185.386719 259.746094 185.960938 260.558594 186.613281 261.3125 C 187.269531 262.066406 187.988281 262.753906 188.777344 263.367188 C 189.566406 263.980469 190.40625 264.511719 191.300781 264.957031 C 192.195312 265.40625 193.121094 265.761719 194.085938 266.027344 C 195.050781 266.292969 196.03125 266.460938 197.027344 266.535156 C 198.4375 266.644531 199.828125 266.6875 201.195312 266.6875 C 207.714844 266.753906 213.980469 265.523438 219.988281 263 C 224.898438 261.03125 229.539062 258.5625 233.917969 255.59375 L 234.179688 255.410156 L 245.09375 266.328125 C 245.800781 267.035156 246.570312 267.664062 247.398438 268.21875 C 248.230469 268.773438 249.109375 269.242188 250.03125 269.625 C 250.953125 270.003906 251.90625 270.292969 252.882812 270.488281 C 253.863281 270.683594 254.851562 270.78125 255.851562 270.78125 C 256.851562 270.78125 257.839844 270.683594 258.820312 270.488281 C 259.800781 270.292969 260.75 270.003906 261.675781 269.625 C 262.597656 269.242188 263.472656 268.773438 264.304688 268.21875 C 265.136719 267.664062 265.90625 267.035156 266.613281 266.328125 Z M 266.613281 266.320312 " fill-opacity="1" fill-rule="nonzero"/></g><g clip-path="url(#861bcc89a1)"><g clip-path="url(#9a3ac63673)"><g clip-path="url(#44e8c4710f)"><path fill="#000000" d="M 52.402344 142.289062 L 116.238281 78.449219 L 208.753906 170.964844 L 144.914062 234.800781 Z M 52.402344 142.289062 " fill-opacity="1" fill-rule="nonzero"/></g></g></g><g clip-path="url(#03dc337f6d)"><g clip-path="url(#a278b72b21)"><g clip-path="url(#daf98ae059)"><path fill="#000000" d="M 15.011719 182.023438 L 174.34375 22.691406 L 353.59375 201.941406 L 194.261719 361.273438 Z M 15.011719 182.023438 " fill-opacity="1" fill-rule="nonzero"/></g></g></g><g fill="#ffffff" fill-opacity="1"><g transform="translate(182.834723, 306.903146)"><g><path d="M -9.796875 -139.984375 C -1.984375 -144.296875 5.800781 -148.234375 13.5625 -151.796875 C 21.320312 -155.359375 28.929688 -157.894531 36.390625 -159.40625 C 43.859375 -160.925781 50.972656 -160.984375 57.734375 -159.578125 C 64.503906 -158.179688 70.691406 -154.679688 76.296875 -149.078125 C 83.296875 -142.078125 88.019531 -134.03125 90.46875 -124.9375 C 92.914062 -115.84375 92.332031 -106.046875 88.71875 -95.546875 C 85.101562 -85.046875 77.578125 -74.078125 66.140625 -62.640625 L 56.6875 -53.1875 L 16.09375 -15.75 C 13.414062 -13.300781 10.617188 -13.535156 7.703125 -16.453125 L -28.6875 -52.84375 C -30.789062 -54.945312 -31.023438 -56.816406 -29.390625 -58.453125 L -28.171875 -59.671875 C -27.585938 -60.253906 -26.242188 -60.660156 -24.140625 -60.890625 C -22.046875 -61.128906 -20.007812 -61.070312 -18.03125 -60.71875 L 54.234375 -55.640625 L 62.8125 -64.21875 C 66.664062 -68.070312 68.5625 -72.59375 68.5 -77.78125 C 68.445312 -82.976562 67.222656 -88.050781 64.828125 -93 C 62.441406 -97.957031 59.675781 -102.007812 56.53125 -105.15625 C 51.394531 -110.289062 46.285156 -113.117188 41.203125 -113.640625 C 36.128906 -114.171875 30.765625 -113.238281 25.109375 -110.84375 C 19.460938 -108.457031 13.253906 -105.398438 6.484375 -101.671875 C -7.390625 -94.316406 -19.550781 -89.617188 -30 -87.578125 C -40.445312 -85.535156 -49.664062 -85.828125 -57.65625 -88.453125 C -65.644531 -91.078125 -72.90625 -95.65625 -79.4375 -102.1875 C -83.289062 -106.039062 -86.414062 -110.738281 -88.8125 -116.28125 C -91.207031 -121.820312 -92.285156 -128.03125 -92.046875 -134.90625 C -91.804688 -141.78125 -89.757812 -149.1875 -85.90625 -157.125 C -82.0625 -165.070312 -75.882812 -173.300781 -67.375 -181.8125 L -59.5 -189.6875 L -18.890625 -227.140625 C -16.203125 -229.578125 -13.398438 -229.335938 -10.484375 -226.421875 L 25.90625 -190.03125 C 28 -187.9375 28.226562 -186.070312 26.59375 -184.4375 L 25.359375 -183.203125 C 24.773438 -182.617188 23.460938 -182.238281 21.421875 -182.0625 C 19.390625 -181.894531 17.320312 -181.925781 15.21875 -182.15625 L -57.046875 -187.234375 L -64.046875 -180.234375 C -68.015625 -176.265625 -69.847656 -171.566406 -69.546875 -166.140625 C -69.253906 -160.722656 -67.796875 -155.472656 -65.171875 -150.390625 C -62.554688 -145.316406 -59.613281 -141.144531 -56.34375 -137.875 C -49.8125 -131.34375 -42.695312 -128.78125 -35 -130.1875 C -27.300781 -131.59375 -18.898438 -134.859375 -9.796875 -139.984375 Z M -9.796875 -139.984375 "/></g></g></g></svg>