<svg xmlns="http://www.w3.org/2000/svg" xmlns:xlink="http://www.w3.org/1999/xlink" width="500" zoomAndPan="magnify" viewBox="0 0 375 374.999991" height="500" preserveAspectRatio="xMidYMid meet" version="1.0"><defs><g/><clipPath id="d7cfbd4ef9"><path d="M 71 74 L 297 74 L 297 298 L 71 298 Z M 71 74 " clip-rule="nonzero"/></clipPath><clipPath id="6b211dee51"><path d="M 38.636719 155.453125 L 167.609375 26.484375 L 349.910156 208.785156 L 220.9375 337.753906 Z M 38.636719 155.453125 " clip-rule="nonzero"/></clipPath><clipPath id="197ee1c16f"><path d="M 72.03125 187.964844 C 71.148438 126.179688 83.949219 112.5 91.746094 103.230469 C 97.480469 96.609375 104.101562 91.757812 108.660156 88.078125 C 111.75 85.578125 113.664062 83.960938 116.457031 82.339844 C 119.253906 80.722656 122.34375 79.398438 125.433594 78.664062 C 128.667969 77.78125 132.640625 77.339844 135.140625 77.191406 C 136.613281 77.191406 137.789062 77.78125 139.113281 77.632812 C 140.144531 77.488281 140.730469 77.191406 141.761719 76.75 C 143.230469 76.457031 146.761719 75.28125 146.761719 75.28125 C 146.910156 75.132812 150.292969 74.984375 152.207031 74.839844 C 153.972656 74.839844 157.207031 74.542969 157.5 74.542969 C 157.5 74.542969 160.886719 75.28125 162.648438 75.574219 C 164.414062 75.867188 167.652344 76.457031 167.945312 76.457031 C 167.945312 76.457031 171.035156 77.78125 172.652344 78.515625 C 174.273438 79.253906 177.507812 80.722656 177.507812 80.722656 C 177.507812 80.722656 180.304688 82.929688 181.628906 83.960938 C 183.097656 85.136719 185.746094 87.195312 185.746094 87.195312 C 185.894531 87.34375 187.953125 89.992188 189.128906 91.460938 C 190.160156 92.785156 192.367188 95.582031 192.367188 95.582031 C 192.367188 95.582031 193.835938 98.816406 194.574219 100.4375 C 195.308594 102.054688 196.632812 105.144531 196.777344 105.289062 C 196.777344 105.289062 196.777344 105.585938 196.777344 105.585938 C 197.808594 106.027344 206.488281 94.699219 213.695312 94.550781 C 225.464844 94.257812 254.59375 110.144531 261.507812 122.355469 C 266.949219 132.210938 259.152344 151.777344 260.917969 157.660156 C 261.507812 160.015625 262.832031 160.457031 263.714844 161.925781 C 264.890625 163.398438 266.949219 166.339844 266.949219 166.339844 C 266.949219 166.632812 268.273438 170.015625 269.007812 171.636719 C 269.597656 173.402344 270.921875 176.785156 270.921875 176.785156 C 271.070312 176.929688 271.511719 184.726562 272.832031 186.933594 C 273.714844 188.40625 275.039062 188.847656 276.21875 189.730469 C 277.6875 190.613281 279.601562 191.347656 280.628906 192.378906 C 281.21875 192.964844 281.660156 193.703125 282.25 194.289062 C 282.835938 194.878906 283.71875 195.171875 284.308594 195.761719 C 284.898438 196.644531 285.632812 198.261719 286.074219 198.410156 C 286.074219 198.410156 286.074219 198.113281 286.21875 197.96875 C 286.21875 197.96875 287.984375 200.910156 288.722656 201.941406 C 289.308594 202.824219 289.898438 203.410156 290.339844 203.851562 C 290.632812 204.441406 290.488281 204.882812 290.78125 205.46875 C 291.222656 206.207031 292.253906 207.53125 292.253906 207.53125 C 292.253906 207.53125 292.253906 207.824219 292.398438 207.972656 C 292.398438 208.265625 292.546875 208.117188 292.546875 208.414062 C 292.691406 208.558594 292.839844 209.296875 292.988281 210.03125 C 293.132812 210.765625 293.574219 211.796875 294.015625 212.824219 C 294.457031 214.148438 295.046875 216.503906 295.488281 217.238281 C 295.636719 217.679688 295.78125 217.828125 295.636719 217.972656 C 295.636719 217.972656 295.636719 217.972656 295.78125 218.121094 C 295.78125 218.121094 295.929688 220.328125 296.078125 221.0625 C 296.222656 221.800781 296.371094 222.242188 296.519531 222.976562 C 296.519531 223.566406 296.371094 224.300781 296.371094 225.183594 C 296.371094 226.359375 296.664062 229.300781 296.664062 229.300781 C 296.664062 229.300781 296.371094 230.773438 296.222656 231.507812 C 296.222656 232.097656 296.519531 232.390625 296.519531 232.980469 C 296.371094 233.714844 295.78125 235.1875 295.636719 235.332031 C 295.636719 235.332031 295.636719 235.332031 295.78125 235.480469 C 295.636719 235.628906 295.636719 237.390625 295.488281 237.832031 C 295.488281 238.421875 295.339844 238.570312 295.046875 238.863281 C 295.046875 239.453125 294.898438 240.480469 294.898438 240.480469 C 294.898438 240.480469 293.429688 243.71875 292.988281 245.042969 C 292.546875 246.070312 292.398438 247.394531 292.253906 247.542969 C 292.105469 247.394531 292.253906 246.953125 292.105469 246.808594 C 292.105469 246.808594 290.488281 250.78125 290.488281 250.78125 C 290.488281 250.78125 290.191406 251.074219 290.046875 251.515625 C 290.046875 251.515625 289.898438 251.660156 289.898438 251.957031 C 289.605469 252.25 289.015625 252.839844 288.574219 253.28125 C 288.132812 253.722656 287.691406 254.457031 287.542969 254.605469 C 287.691406 254.75 286.808594 258.28125 286.515625 260.046875 C 286.074219 261.960938 285.484375 265.488281 285.484375 265.488281 C 285.339844 265.636719 283.867188 268.875 282.984375 270.640625 C 282.25 272.257812 280.628906 275.640625 280.628906 275.640625 C 280.628906 275.640625 278.277344 278.582031 277.101562 280.054688 C 275.921875 281.523438 273.570312 284.171875 273.570312 284.171875 C 273.421875 284.320312 270.628906 286.527344 269.15625 287.703125 C 267.539062 288.734375 264.742188 290.941406 264.742188 290.941406 C 264.742188 290.941406 264.597656 291.085938 264.597656 291.085938 C 264.597656 291.085938 261.210938 292.410156 259.59375 293.144531 C 257.828125 294.027344 254.445312 295.351562 254.445312 295.351562 C 254.296875 295.5 250.769531 296.089844 248.855469 296.234375 C 247.089844 296.53125 243.414062 297.265625 243.414062 297.265625 C 243.265625 297.117188 239.734375 296.824219 237.820312 296.675781 C 235.910156 296.53125 232.378906 296.234375 232.230469 296.382812 C 232.085938 296.234375 228.703125 295.207031 226.9375 294.617188 C 225.171875 294.027344 221.789062 292.703125 221.640625 292.851562 C 221.492188 292.703125 218.402344 290.792969 216.933594 289.910156 C 215.460938 288.734375 212.371094 286.820312 212.226562 286.671875 C 212.226562 286.671875 209.726562 284.171875 208.402344 282.847656 C 207.078125 281.523438 204.574219 278.730469 204.574219 278.730469 C 204.429688 278.582031 202.664062 275.640625 201.78125 273.875 C 200.75 272.257812 198.839844 269.167969 198.839844 269.167969 C 198.984375 269.019531 198.839844 265.929688 197.660156 265.34375 C 195.160156 264.3125 186.480469 273.582031 179.125 272.992188 C 167.359375 272.109375 142.347656 257.695312 133.964844 246.367188 C 127.34375 237.6875 131.464844 223.269531 126.167969 215.621094 C 121.3125 208.707031 113.074219 205.175781 104.835938 200.761719 C 95.421875 195.761719 72.03125 187.964844 72.03125 187.964844 " clip-rule="nonzero"/></clipPath><clipPath id="0fa8b61988"><path d="M 167 190 L 267 190 L 267 285 L 167 285 Z M 167 190 " clip-rule="nonzero"/></clipPath><clipPath id="0f34a4105e"><path d="M 151.308594 230.492188 L 209.449219 172.351562 L 282.601562 245.503906 L 224.460938 303.640625 Z M 151.308594 230.492188 " clip-rule="nonzero"/></clipPath><clipPath id="19121612fb"><path d="M 202.21875 276.386719 C 171.472656 248.585938 170.445312 244.90625 169.414062 240.933594 C 168.238281 236.816406 167.796875 232.253906 168.089844 228.136719 C 168.382812 223.722656 169.414062 219.457031 171.03125 215.484375 C 172.652344 211.515625 175.003906 207.6875 177.800781 204.304688 C 180.59375 201.214844 184.125 198.273438 187.800781 196.066406 C 191.332031 194.007812 195.597656 192.390625 199.867188 191.359375 C 204.132812 190.625 208.542969 190.332031 212.664062 190.917969 C 216.929688 191.359375 221.492188 192.683594 225.167969 194.597656 C 228.992188 196.363281 232.816406 199.007812 235.757812 201.953125 C 238.996094 204.894531 241.644531 208.425781 243.554688 212.394531 C 245.46875 216.074219 246.941406 220.488281 247.527344 224.605469 C 248.265625 228.871094 248.117188 233.433594 247.527344 237.550781 C 246.644531 241.671875 245.175781 246.082031 243.261719 249.761719 C 241.054688 253.4375 238.261719 257.117188 235.171875 259.910156 C 232.082031 263 228.257812 265.355469 224.433594 267.121094 C 220.609375 268.886719 216.195312 270.0625 211.929688 270.503906 C 207.664062 270.945312 203.101562 270.503906 198.984375 269.621094 C 194.863281 268.738281 190.597656 266.824219 186.921875 264.621094 C 183.390625 262.558594 180.007812 259.472656 177.210938 256.085938 C 174.5625 252.851562 172.210938 249.027344 170.589844 245.054688 C 169.121094 240.933594 168.238281 236.523438 167.941406 232.402344 C 167.796875 228.136719 168.382812 223.722656 169.5625 219.605469 C 170.738281 215.484375 172.796875 211.367188 175.152344 207.835938 C 177.503906 204.304688 180.742188 201.070312 184.125 198.566406 C 187.65625 195.921875 191.628906 194.007812 195.746094 192.535156 C 199.71875 191.210938 204.132812 190.625 208.542969 190.625 C 212.664062 190.625 217.222656 191.359375 221.195312 192.976562 C 225.167969 194.300781 228.40625 196.363281 232.523438 199.007812 C 238.113281 202.835938 245.761719 208.425781 250.765625 213.71875 C 255.472656 218.429688 260.179688 224.019531 262.679688 228.578125 C 264.445312 231.816406 265.035156 234.167969 265.621094 237.699219 C 266.210938 242.996094 266.359375 250.792969 264.445312 256.824219 C 262.679688 262.707031 259.003906 268.738281 254.738281 273.003906 C 250.324219 277.417969 244.292969 281.09375 238.40625 282.859375 C 232.671875 284.773438 225.460938 285.214844 219.578125 284.039062 C 213.546875 283.007812 202.21875 276.386719 202.21875 276.386719 " clip-rule="nonzero"/></clipPath></defs><path fill="#ffffff" d="M 361.878906 239.65625 L 239.8125 361.722656 C 239.097656 362.433594 238.347656 363.109375 237.566406 363.746094 C 236.785156 364.382812 235.972656 364.980469 235.132812 365.539062 C 234.292969 366.097656 233.429688 366.617188 232.539062 367.089844 C 231.648438 367.5625 230.738281 367.992188 229.804688 368.378906 C 228.871094 368.761719 227.921875 369.101562 226.957031 369.390625 C 225.992188 369.683594 225.011719 369.925781 224.023438 370.125 C 223.035156 370.320312 222.039062 370.46875 221.035156 370.566406 C 220.03125 370.664062 219.023438 370.714844 218.015625 370.714844 C 217.003906 370.714844 216 370.664062 214.996094 370.566406 C 213.992188 370.46875 212.996094 370.320312 212.003906 370.125 C 211.015625 369.925781 210.039062 369.683594 209.070312 369.390625 C 208.105469 369.101562 207.15625 368.761719 206.222656 368.378906 C 205.292969 367.992188 204.378906 367.5625 203.488281 367.089844 C 202.597656 366.617188 201.734375 366.097656 200.894531 365.539062 C 200.054688 364.980469 199.242188 364.382812 198.460938 363.746094 C 197.679688 363.109375 196.929688 362.433594 196.214844 361.722656 L 21.558594 187.054688 C 18.324219 183.449219 15.425781 179.597656 12.855469 175.492188 C 10.289062 171.386719 8.089844 167.09375 6.261719 162.609375 C 4.4375 158.125 3.007812 153.519531 1.972656 148.789062 C 0.941406 144.058594 0.324219 139.273438 0.117188 134.4375 L 1.320312 32.046875 C 1.339844 31.03125 1.410156 30.019531 1.523438 29.011719 C 1.640625 28.003906 1.804688 27.003906 2.019531 26.007812 C 2.230469 25.015625 2.492188 24.035156 2.800781 23.066406 C 3.105469 22.101562 3.457031 21.148438 3.855469 20.214844 C 4.253906 19.28125 4.695312 18.367188 5.183594 17.476562 C 5.667969 16.582031 6.195312 15.71875 6.765625 14.875 C 7.332031 14.035156 7.941406 13.222656 8.589844 12.441406 C 9.234375 11.65625 9.917969 10.90625 10.636719 10.191406 C 11.355469 9.472656 12.105469 8.792969 12.890625 8.148438 C 13.675781 7.5 14.488281 6.894531 15.332031 6.328125 C 16.171875 5.761719 17.042969 5.234375 17.933594 4.753906 C 18.828125 4.269531 19.742188 3.828125 20.675781 3.433594 C 21.609375 3.035156 22.5625 2.6875 23.53125 2.382812 C 24.5 2.078125 25.480469 1.820312 26.472656 1.609375 C 27.46875 1.398438 28.46875 1.234375 29.476562 1.121094 C 30.488281 1.003906 31.5 0.941406 32.515625 0.921875 L 134.59375 -0.101562 C 139.429688 0.117188 144.214844 0.746094 148.945312 1.785156 C 153.671875 2.824219 158.28125 4.261719 162.761719 6.089844 C 167.246094 7.921875 171.539062 10.121094 175.644531 12.691406 C 179.75 15.261719 183.605469 18.160156 187.210938 21.390625 L 361.878906 196.058594 C 362.589844 196.773438 363.265625 197.523438 363.902344 198.304688 C 364.539062 199.085938 365.140625 199.894531 365.699219 200.738281 C 366.257812 201.578125 366.773438 202.441406 367.246094 203.332031 C 367.71875 204.222656 368.148438 205.132812 368.535156 206.066406 C 368.917969 207 369.257812 207.949219 369.550781 208.914062 C 369.839844 209.878906 370.085938 210.859375 370.28125 211.847656 C 370.476562 212.835938 370.625 213.832031 370.722656 214.835938 C 370.820312 215.839844 370.871094 216.847656 370.871094 217.855469 C 370.871094 218.867188 370.820312 219.871094 370.722656 220.875 C 370.625 221.878906 370.476562 222.875 370.28125 223.867188 C 370.085938 224.855469 369.839844 225.832031 369.550781 226.800781 C 369.257812 227.765625 368.917969 228.714844 368.535156 229.648438 C 368.148438 230.578125 367.71875 231.492188 367.246094 232.382812 C 366.773438 233.273438 366.257812 234.136719 365.699219 234.976562 C 365.140625 235.816406 364.539062 236.628906 363.902344 237.410156 C 363.265625 238.191406 362.589844 238.9375 361.878906 239.65625 Z M 83.300781 62.0625 C 83.300781 61.34375 83.265625 60.621094 83.195312 59.90625 C 83.125 59.1875 83.019531 58.472656 82.878906 57.765625 C 82.738281 57.058594 82.5625 56.359375 82.351562 55.671875 C 82.144531 54.980469 81.902344 54.300781 81.625 53.636719 C 81.347656 52.96875 81.042969 52.316406 80.703125 51.679688 C 80.363281 51.042969 79.992188 50.425781 79.589844 49.828125 C 79.191406 49.226562 78.761719 48.648438 78.304688 48.089844 C 77.847656 47.535156 77.363281 47 76.851562 46.488281 C 76.34375 45.980469 75.808594 45.496094 75.25 45.039062 C 74.695312 44.578125 74.113281 44.152344 73.515625 43.75 C 72.914062 43.347656 72.296875 42.980469 71.660156 42.640625 C 71.027344 42.296875 70.375 41.992188 69.707031 41.714844 C 69.042969 41.4375 68.363281 41.195312 67.671875 40.984375 C 66.984375 40.777344 66.285156 40.601562 65.578125 40.460938 C 64.871094 40.320312 64.15625 40.214844 63.4375 40.144531 C 62.722656 40.074219 62 40.039062 61.28125 40.039062 C 60.558594 40.039062 59.839844 40.074219 59.121094 40.144531 C 58.402344 40.214844 57.691406 40.320312 56.984375 40.460938 C 56.277344 40.601562 55.578125 40.777344 54.886719 40.984375 C 54.195312 41.195312 53.519531 41.4375 52.851562 41.714844 C 52.1875 41.988281 51.535156 42.296875 50.898438 42.636719 C 50.261719 42.976562 49.644531 43.347656 49.042969 43.75 C 48.445312 44.148438 47.867188 44.578125 47.308594 45.035156 C 46.75 45.492188 46.21875 45.976562 45.707031 46.488281 C 45.195312 46.996094 44.714844 47.53125 44.253906 48.089844 C 43.796875 48.644531 43.367188 49.226562 42.96875 49.824219 C 42.566406 50.425781 42.195312 51.042969 41.855469 51.679688 C 41.515625 52.316406 41.210938 52.964844 40.933594 53.632812 C 40.65625 54.296875 40.414062 54.976562 40.207031 55.667969 C 39.996094 56.359375 39.820312 57.054688 39.679688 57.765625 C 39.539062 58.472656 39.433594 59.183594 39.363281 59.902344 C 39.292969 60.621094 39.257812 61.339844 39.257812 62.058594 C 39.257812 62.78125 39.292969 63.5 39.363281 64.21875 C 39.433594 64.9375 39.539062 65.648438 39.679688 66.355469 C 39.820312 67.0625 39.996094 67.761719 40.207031 68.453125 C 40.414062 69.144531 40.660156 69.820312 40.933594 70.488281 C 41.210938 71.15625 41.519531 71.804688 41.859375 72.441406 C 42.199219 73.078125 42.570312 73.695312 42.96875 74.296875 C 43.371094 74.894531 43.800781 75.472656 44.257812 76.03125 C 44.714844 76.589844 45.199219 77.121094 45.710938 77.632812 C 46.21875 78.140625 46.753906 78.625 47.3125 79.082031 C 47.867188 79.542969 48.445312 79.96875 49.046875 80.371094 C 49.648438 80.773438 50.265625 81.140625 50.902344 81.480469 C 51.535156 81.820312 52.1875 82.128906 52.855469 82.40625 C 53.519531 82.679688 54.199219 82.925781 54.890625 83.132812 C 55.582031 83.34375 56.277344 83.515625 56.988281 83.65625 C 57.695312 83.796875 58.40625 83.90625 59.125 83.976562 C 59.84375 84.046875 60.5625 84.082031 61.28125 84.082031 C 62.003906 84.082031 62.722656 84.046875 63.441406 83.976562 C 64.160156 83.902344 64.871094 83.796875 65.578125 83.65625 C 66.285156 83.515625 66.984375 83.34375 67.675781 83.132812 C 68.363281 82.921875 69.042969 82.679688 69.707031 82.40625 C 70.375 82.128906 71.027344 81.820312 71.664062 81.480469 C 72.296875 81.140625 72.914062 80.769531 73.515625 80.371094 C 74.113281 79.96875 74.695312 79.539062 75.25 79.082031 C 75.808594 78.625 76.34375 78.140625 76.851562 77.632812 C 77.363281 77.121094 77.84375 76.589844 78.304688 76.03125 C 78.761719 75.472656 79.191406 74.894531 79.589844 74.296875 C 79.992188 73.695312 80.359375 73.078125 80.699219 72.441406 C 81.039062 71.804688 81.347656 71.15625 81.625 70.488281 C 81.902344 69.824219 82.144531 69.144531 82.351562 68.453125 C 82.5625 67.765625 82.738281 67.066406 82.878906 66.359375 C 83.019531 65.652344 83.125 64.9375 83.195312 64.222656 C 83.265625 63.503906 83.300781 62.785156 83.300781 62.0625 Z M 266.714844 266.417969 C 267.429688 265.703125 268.070312 264.925781 268.632812 264.082031 C 269.195312 263.242188 269.667969 262.351562 270.054688 261.417969 C 270.445312 260.484375 270.734375 259.519531 270.933594 258.527344 C 271.132812 257.535156 271.230469 256.53125 271.230469 255.519531 C 271.230469 254.507812 271.132812 253.503906 270.933594 252.511719 C 270.734375 251.519531 270.445312 250.554688 270.054688 249.617188 C 269.667969 248.683594 269.195312 247.796875 268.632812 246.953125 C 268.070312 246.113281 267.429688 245.332031 266.714844 244.617188 L 255.550781 233.453125 C 260.179688 226.351562 263.417969 218.660156 265.269531 210.386719 C 265.757812 208.5625 266.125 206.714844 266.371094 204.84375 C 266.621094 202.972656 266.746094 201.09375 266.75 199.207031 C 266.753906 197.320312 266.632812 195.441406 266.390625 193.566406 C 266.148438 191.695312 265.789062 189.847656 265.308594 188.023438 C 264.824219 186.195312 264.226562 184.410156 263.511719 182.664062 C 262.800781 180.914062 261.972656 179.222656 261.039062 177.582031 C 260.105469 175.941406 259.070312 174.371094 257.929688 172.863281 C 256.792969 171.359375 255.558594 169.933594 254.234375 168.589844 C 252.359375 166.71875 250.328125 165.027344 248.148438 163.519531 C 245.96875 162.015625 243.671875 160.714844 241.257812 159.621094 C 238.84375 158.523438 236.351562 157.65625 233.78125 157.007812 C 231.207031 156.363281 228.601562 155.953125 225.957031 155.773438 C 218.855469 155.316406 211.898438 156.101562 205.082031 158.140625 L 205.03125 158.164062 C 199.21875 159.992188 193.753906 162.554688 188.628906 165.855469 L 188.578125 165.871094 C 184.164062 168.746094 180.097656 172.050781 176.382812 175.789062 C 174.15625 178.035156 171.761719 180.082031 169.191406 181.929688 C 166.371094 183.941406 163.320312 185.511719 160.042969 186.640625 L 160 186.648438 C 156.929688 187.652344 153.789062 188 150.574219 187.691406 L 150.519531 187.691406 C 148.898438 187.558594 147.34375 187.164062 145.851562 186.515625 C 144.359375 185.867188 143.011719 184.992188 141.808594 183.898438 C 140.925781 182.902344 140.1875 181.808594 139.59375 180.617188 C 139.003906 179.425781 138.578125 178.175781 138.316406 176.871094 C 138.054688 175.566406 137.972656 174.25 138.0625 172.921875 C 138.152344 171.59375 138.414062 170.300781 138.851562 169.042969 C 139.824219 165.300781 141.273438 161.753906 143.207031 158.40625 C 145.140625 155.054688 147.484375 152.023438 150.238281 149.304688 C 152.25 147.589844 154.394531 146.0625 156.671875 144.722656 L 157.480469 144.199219 C 160.320312 142.457031 163.304688 141.019531 166.433594 139.878906 C 169.351562 138.78125 172.371094 138.222656 175.488281 138.203125 C 176.5 138.199219 177.5 138.101562 178.492188 137.902344 C 179.484375 137.703125 180.445312 137.40625 181.378906 137.019531 C 182.3125 136.632812 183.199219 136.15625 184.039062 135.59375 C 184.878906 135.03125 185.652344 134.390625 186.367188 133.675781 C 187.082031 132.957031 187.71875 132.179688 188.28125 131.339844 C 188.839844 130.496094 189.3125 129.609375 189.699219 128.675781 C 190.085938 127.742188 190.375 126.777344 190.574219 125.785156 C 190.769531 124.792969 190.867188 123.792969 190.867188 122.78125 C 190.867188 121.773438 190.769531 120.769531 190.570312 119.777344 C 190.371094 118.789062 190.082031 117.824219 189.691406 116.890625 C 189.304688 115.957031 188.832031 115.070312 188.269531 114.230469 C 187.707031 113.386719 187.070312 112.609375 186.355469 111.894531 C 185.640625 111.179688 184.863281 110.542969 184.023438 109.980469 C 183.183594 109.417969 182.296875 108.945312 181.363281 108.554688 C 180.429688 108.167969 179.464844 107.875 178.476562 107.679688 C 177.484375 107.480469 176.480469 107.378906 175.472656 107.378906 L 175.445312 107.378906 C 168.578125 107.410156 161.933594 108.636719 155.507812 111.058594 C 150.355469 112.957031 145.453125 115.359375 140.804688 118.277344 L 140.535156 118.449219 L 129.441406 107.351562 C 128.726562 106.636719 127.949219 105.996094 127.105469 105.433594 C 126.265625 104.871094 125.375 104.394531 124.441406 104.007812 C 123.503906 103.617188 122.539062 103.324219 121.546875 103.125 C 120.554688 102.929688 119.550781 102.828125 118.539062 102.828125 C 117.527344 102.828125 116.523438 102.925781 115.527344 103.125 C 114.535156 103.320312 113.570312 103.613281 112.636719 104 C 111.699219 104.390625 110.8125 104.863281 109.96875 105.425781 C 109.125 105.988281 108.347656 106.628906 107.632812 107.34375 C 106.914062 108.0625 106.277344 108.839844 105.714844 109.683594 C 105.152344 110.527344 104.675781 111.414062 104.289062 112.351562 C 103.902344 113.285156 103.609375 114.25 103.414062 115.246094 C 103.214844 116.238281 103.117188 117.242188 103.121094 118.253906 C 103.121094 119.265625 103.21875 120.269531 103.417969 121.261719 C 103.617188 122.257812 103.910156 123.21875 104.296875 124.15625 C 104.6875 125.089844 105.164062 125.980469 105.726562 126.820312 C 106.289062 127.660156 106.929688 128.441406 107.648438 129.15625 L 118.425781 139.933594 C 113.898438 146.808594 110.683594 154.25 108.785156 162.257812 C 108.28125 164.148438 107.902344 166.0625 107.644531 168.003906 C 107.386719 169.941406 107.253906 171.890625 107.25 173.847656 C 107.242188 175.804688 107.359375 177.753906 107.601562 179.695312 C 107.847656 181.632812 108.214844 183.550781 108.703125 185.445312 C 109.191406 187.339844 109.800781 189.195312 110.527344 191.011719 C 111.253906 192.828125 112.097656 194.589844 113.050781 196.296875 C 114.003906 198.003906 115.0625 199.644531 116.226562 201.21875 C 117.390625 202.789062 118.652344 204.28125 120.007812 205.691406 C 121.84375 207.484375 123.816406 209.113281 125.933594 210.570312 C 128.046875 212.027344 130.265625 213.296875 132.597656 214.375 C 134.929688 215.453125 137.332031 216.324219 139.8125 216.992188 C 142.289062 217.660156 144.808594 218.113281 147.367188 218.351562 C 155.007812 219.144531 162.472656 218.324219 169.761719 215.898438 C 175.984375 213.804688 181.769531 210.847656 187.109375 207.023438 C 191.0625 204.1875 194.75 201.042969 198.175781 197.589844 C 200.339844 195.40625 202.710938 193.476562 205.28125 191.792969 C 208.066406 190.011719 211.035156 188.617188 214.183594 187.605469 C 217.355469 186.6875 220.589844 186.335938 223.882812 186.546875 C 225.496094 186.65625 227.035156 187.042969 228.507812 187.703125 C 229.980469 188.367188 231.292969 189.265625 232.441406 190.398438 C 233.808594 191.773438 237.035156 194.992188 235.125 203.972656 C 234.171875 207.8125 232.722656 211.453125 230.773438 214.898438 C 228.824219 218.339844 226.445312 221.457031 223.644531 224.25 C 221.199219 226.46875 218.605469 228.496094 215.867188 230.339844 C 213.175781 232.085938 210.339844 233.546875 207.355469 234.726562 C 204.484375 235.828125 201.519531 236.214844 198.460938 235.886719 C 197.453125 235.816406 196.445312 235.839844 195.441406 235.964844 C 194.4375 236.089844 193.453125 236.3125 192.492188 236.632812 C 191.53125 236.953125 190.613281 237.363281 189.734375 237.863281 C 188.851562 238.363281 188.03125 238.941406 187.265625 239.605469 C 186.5 240.269531 185.804688 241 185.183594 241.796875 C 184.5625 242.597656 184.027344 243.449219 183.574219 244.351562 C 183.121094 245.257812 182.757812 246.199219 182.488281 247.171875 C 182.222656 248.148438 182.050781 249.140625 181.976562 250.152344 C 181.90625 251.160156 181.929688 252.167969 182.058594 253.171875 C 182.183594 254.175781 182.40625 255.160156 182.722656 256.117188 C 183.042969 257.078125 183.453125 258 183.953125 258.878906 C 184.453125 259.757812 185.035156 260.582031 185.695312 261.347656 C 186.359375 262.113281 187.089844 262.804688 187.886719 263.425781 C 188.6875 264.046875 189.539062 264.585938 190.441406 265.039062 C 191.347656 265.492188 192.289062 265.855469 193.265625 266.121094 C 194.238281 266.390625 195.234375 266.5625 196.242188 266.632812 C 197.667969 266.746094 199.078125 266.789062 200.464844 266.789062 C 207.066406 266.855469 213.410156 265.613281 219.496094 263.054688 C 224.46875 261.0625 229.171875 258.5625 233.601562 255.558594 L 233.867188 255.367188 L 244.921875 266.429688 C 245.636719 267.140625 246.414062 267.78125 247.257812 268.339844 C 248.097656 268.902344 248.988281 269.375 249.921875 269.761719 C 250.855469 270.148438 251.820312 270.441406 252.8125 270.640625 C 253.804688 270.835938 254.804688 270.933594 255.816406 270.933594 C 256.828125 270.933594 257.832031 270.835938 258.824219 270.640625 C 259.816406 270.441406 260.777344 270.148438 261.714844 269.761719 C 262.648438 269.375 263.535156 268.902344 264.378906 268.339844 C 265.21875 267.78125 266 267.140625 266.714844 266.429688 Z M 266.714844 266.417969 " fill-opacity="1" fill-rule="nonzero"/><g clip-path="url(#d7cfbd4ef9)"><g clip-path="url(#6b211dee51)"><g clip-path="url(#197ee1c16f)"><path fill="#ffffff" d="M 27.753906 155.453125 L 167.0625 16.144531 L 360.25 209.328125 L 220.9375 348.636719 Z M 27.753906 155.453125 " fill-opacity="1" fill-rule="nonzero"/></g></g></g><g clip-path="url(#0fa8b61988)"><g clip-path="url(#0f34a4105e)"><g clip-path="url(#19121612fb)"><path fill="#ffffff" d="M 139.84375 230.492188 L 209.722656 160.613281 L 294.335938 245.230469 L 224.460938 315.105469 Z M 139.84375 230.492188 " fill-opacity="1" fill-rule="nonzero"/></g></g></g><g fill="#000000" fill-opacity="1"><g transform="translate(190.652514, 316.527229)"><g><path d="M -9.953125 -142.015625 C -2.015625 -146.390625 5.882812 -150.382812 13.75 -154 C 21.613281 -157.613281 29.332031 -160.1875 36.90625 -161.71875 C 44.488281 -163.257812 51.710938 -163.316406 58.578125 -161.890625 C 65.453125 -160.472656 71.726562 -156.925781 77.40625 -151.25 C 84.507812 -144.144531 89.300781 -135.972656 91.78125 -126.734375 C 94.269531 -117.503906 93.679688 -107.566406 90.015625 -96.921875 C 86.347656 -86.273438 78.710938 -75.148438 67.109375 -63.546875 L 57.515625 -53.953125 L 16.328125 -15.984375 C 13.609375 -13.492188 10.769531 -13.726562 7.8125 -16.6875 L -29.109375 -53.609375 C -31.242188 -55.742188 -31.484375 -57.640625 -29.828125 -59.296875 L -28.59375 -60.53125 C -28 -61.125 -26.632812 -61.539062 -24.5 -61.78125 C -22.363281 -62.019531 -20.289062 -61.957031 -18.28125 -61.59375 L 55.03125 -56.4375 L 63.734375 -65.140625 C 67.640625 -69.046875 69.5625 -73.628906 69.5 -78.890625 C 69.445312 -84.160156 68.203125 -89.3125 65.765625 -94.34375 C 63.335938 -99.382812 60.53125 -103.5 57.34375 -106.6875 C 52.132812 -111.894531 46.953125 -114.765625 41.796875 -115.296875 C 36.648438 -115.835938 31.207031 -114.894531 25.46875 -112.46875 C 19.726562 -110.039062 13.429688 -106.929688 6.578125 -103.140625 C -7.503906 -95.679688 -19.84375 -90.914062 -30.4375 -88.84375 C -41.03125 -86.769531 -50.378906 -87.0625 -58.484375 -89.71875 C -66.597656 -92.382812 -73.96875 -97.03125 -80.59375 -103.65625 C -84.507812 -107.570312 -87.675781 -112.335938 -90.09375 -117.953125 C -92.519531 -123.578125 -93.613281 -129.878906 -93.375 -136.859375 C -93.144531 -143.847656 -91.070312 -151.363281 -87.15625 -159.40625 C -83.25 -167.457031 -76.976562 -175.800781 -68.34375 -184.4375 L -60.359375 -192.421875 L -19.171875 -230.421875 C -16.453125 -232.910156 -13.613281 -232.675781 -10.65625 -229.71875 L 26.265625 -192.796875 C 28.398438 -190.660156 28.640625 -188.765625 26.984375 -187.109375 L 25.75 -185.875 C 25.15625 -185.28125 23.820312 -184.894531 21.75 -184.71875 C 19.675781 -184.539062 17.578125 -184.566406 15.453125 -184.796875 L -57.875 -189.9375 L -64.96875 -182.84375 C -68.988281 -178.820312 -70.851562 -174.0625 -70.5625 -168.5625 C -70.269531 -163.0625 -68.789062 -157.734375 -66.125 -152.578125 C -63.46875 -147.429688 -60.484375 -143.203125 -57.171875 -139.890625 C -50.535156 -133.253906 -43.3125 -130.644531 -35.5 -132.0625 C -27.695312 -133.488281 -19.179688 -136.804688 -9.953125 -142.015625 Z M -9.953125 -142.015625 "/></g></g></g></svg>