<svg xmlns="http://www.w3.org/2000/svg" xmlns:xlink="http://www.w3.org/1999/xlink" width="500" zoomAndPan="magnify" viewBox="0 0 375 374.999991" height="500" preserveAspectRatio="xMidYMid meet" version="1.0"><defs><clipPath id="9d090c4090"><path d="M 120.46875 256.308594 L 125.71875 256.308594 L 125.71875 262.308594 L 120.46875 262.308594 Z M 120.46875 256.308594 " clip-rule="nonzero"/></clipPath></defs><g clip-path="url(#9d090c4090)"><path fill="#231f20" d="M 125.714844 261.382812 L 124.90625 256.351562 C 124.902344 256.324219 124.878906 256.308594 124.855469 256.308594 L 121.90625 256.515625 C 121.882812 256.519531 121.863281 256.535156 121.859375 256.5625 L 120.46875 261.851562 C 120.46875 261.851562 120.46875 261.855469 120.46875 261.855469 C 120.46875 261.855469 120.46875 261.859375 120.46875 261.859375 C 120.46875 261.863281 120.46875 261.863281 120.46875 261.863281 C 120.46875 261.867188 120.46875 261.867188 120.46875 261.867188 C 120.46875 261.871094 120.46875 261.871094 120.46875 261.871094 C 120.46875 261.871094 120.46875 261.871094 120.46875 261.875 C 120.46875 261.875 120.472656 261.878906 120.472656 261.878906 C 120.472656 261.882812 120.472656 261.882812 120.472656 261.882812 C 120.472656 261.886719 120.476562 261.886719 120.476562 261.890625 C 120.480469 261.894531 120.480469 261.894531 120.484375 261.898438 C 120.484375 261.898438 120.484375 261.898438 120.484375 261.902344 C 120.488281 261.902344 120.488281 261.902344 120.488281 261.902344 C 120.492188 261.90625 120.492188 261.90625 120.492188 261.90625 C 120.496094 261.90625 120.496094 261.910156 120.5 261.910156 C 120.5 261.910156 120.5 261.910156 120.503906 261.910156 C 120.503906 261.910156 120.503906 261.914062 120.507812 261.914062 C 120.507812 261.914062 120.511719 261.914062 120.511719 261.914062 L 122.511719 262.304688 C 122.515625 262.304688 122.515625 262.304688 122.519531 262.304688 C 122.527344 262.304688 122.53125 262.304688 122.539062 262.300781 L 125.683594 261.4375 C 125.703125 261.433594 125.71875 261.410156 125.714844 261.382812 Z M 121.878906 261.742188 C 121.867188 261.734375 121.859375 261.734375 121.847656 261.734375 L 120.585938 261.808594 L 121.890625 256.84375 L 122.453125 262.152344 Z M 122.292969 262.164062 L 120.921875 261.894531 L 121.835938 261.835938 Z M 122.558594 262.191406 L 121.964844 256.613281 L 124.816406 256.414062 L 125.609375 261.355469 Z M 124.363281 256.730469 C 124.359375 256.683594 124.339844 256.644531 124.304688 256.613281 C 124.269531 256.582031 124.226562 256.570312 124.183594 256.574219 L 122.902344 256.671875 C 122.808594 256.679688 122.742188 256.761719 122.746094 256.855469 L 122.757812 256.96875 C 122.761719 257.058594 122.835938 257.125 122.921875 257.125 C 122.925781 257.125 122.929688 257.125 122.933594 257.125 L 124.21875 257.023438 C 124.308594 257.019531 124.378906 256.9375 124.371094 256.84375 Z M 124.253906 256.902344 C 124.242188 256.914062 124.226562 256.921875 124.210938 256.921875 L 122.925781 257.023438 C 122.890625 257.027344 122.859375 257 122.855469 256.964844 L 122.847656 256.847656 C 122.84375 256.8125 122.871094 256.78125 122.90625 256.777344 L 124.191406 256.675781 C 124.191406 256.675781 124.195312 256.675781 124.195312 256.675781 C 124.210938 256.675781 124.226562 256.683594 124.238281 256.691406 C 124.25 256.703125 124.257812 256.71875 124.261719 256.738281 L 124.269531 256.851562 C 124.269531 256.871094 124.265625 256.886719 124.253906 256.902344 Z M 124.253906 256.902344 " fill-opacity="1" fill-rule="nonzero"/></g><path fill="#cb6ce6" d="M 357.351562 298.792969 L 341.148438 128.308594 C 339.878906 114.949219 328.738281 104.820312 315.316406 104.820312 L 279.546875 104.820312 L 279.546875 94.691406 C 279.546875 43.917969 238.273438 2.644531 187.5 2.644531 C 136.726562 2.644531 95.453125 43.917969 95.453125 94.691406 L 95.453125 104.820312 L 59.683594 104.820312 C 46.261719 104.820312 35.121094 114.886719 33.851562 128.308594 L 17.648438 298.792969 C 15.8125 317.785156 22.140625 336.714844 34.992188 350.832031 C 47.78125 364.949219 66.078125 372.988281 85.132812 372.988281 L 289.929688 372.988281 C 308.988281 372.988281 327.28125 364.886719 340.070312 350.832031 C 352.859375 336.714844 359.1875 317.722656 357.351562 298.792969 Z M 111.277344 94.691406 C 111.277344 52.65625 145.464844 18.46875 187.5 18.46875 C 229.535156 18.46875 263.722656 52.65625 263.722656 94.691406 L 263.722656 104.820312 L 111.277344 104.820312 Z M 279.546875 185.980469 C 279.546875 236.753906 238.273438 278.027344 187.5 278.027344 C 136.726562 278.027344 95.453125 236.753906 95.453125 185.980469 L 95.453125 167.9375 C 95.453125 163.570312 98.996094 160.023438 103.363281 160.023438 C 107.734375 160.023438 111.277344 163.570312 111.277344 167.9375 L 111.277344 185.980469 C 111.277344 228.015625 145.464844 262.203125 187.5 262.203125 C 229.535156 262.203125 263.722656 228.015625 263.722656 185.980469 L 263.722656 167.9375 C 263.722656 163.570312 267.265625 160.023438 271.636719 160.023438 C 276.003906 160.023438 279.546875 163.570312 279.546875 167.9375 Z M 279.546875 185.980469 " fill-opacity="1" fill-rule="nonzero"/></svg>