<svg xmlns="http://www.w3.org/2000/svg" xmlns:xlink="http://www.w3.org/1999/xlink" width="500" zoomAndPan="magnify" viewBox="0 0 375 374.999991" height="500" preserveAspectRatio="xMidYMid meet" version="1.0"><defs><clipPath id="648913760a"><path d="M 120.46875 256.308594 L 125.71875 256.308594 L 125.71875 262.308594 L 120.46875 262.308594 Z M 120.46875 256.308594 " clip-rule="nonzero"/></clipPath></defs><g clip-path="url(#648913760a)"><path fill="#ffffff" d="M 125.996094 261.542969 L 125.144531 256.351562 C 125.140625 256.328125 125.117188 256.308594 125.089844 256.308594 L 121.984375 256.523438 C 121.957031 256.523438 121.9375 256.542969 121.933594 256.570312 L 120.46875 262.027344 C 120.46875 262.03125 120.46875 262.03125 120.46875 262.035156 C 120.46875 262.035156 120.46875 262.035156 120.46875 262.039062 C 120.46875 262.039062 120.46875 262.039062 120.46875 262.042969 C 120.46875 262.046875 120.46875 262.046875 120.46875 262.046875 C 120.46875 262.050781 120.472656 262.050781 120.472656 262.054688 C 120.472656 262.054688 120.472656 262.058594 120.472656 262.058594 C 120.472656 262.058594 120.476562 262.0625 120.476562 262.0625 C 120.476562 262.0625 120.476562 262.066406 120.476562 262.066406 C 120.476562 262.066406 120.480469 262.066406 120.480469 262.066406 C 120.480469 262.070312 120.480469 262.070312 120.484375 262.074219 C 120.488281 262.078125 120.488281 262.078125 120.492188 262.078125 C 120.492188 262.082031 120.492188 262.082031 120.496094 262.082031 C 120.496094 262.082031 120.5 262.085938 120.5 262.085938 C 120.5 262.085938 120.503906 262.085938 120.503906 262.085938 C 120.507812 262.085938 120.507812 262.085938 120.507812 262.085938 C 120.511719 262.085938 120.511719 262.089844 120.515625 262.089844 L 122.621094 262.492188 C 122.625 262.492188 122.625 262.492188 122.628906 262.492188 L 122.632812 262.492188 C 122.636719 262.492188 122.644531 262.492188 122.648438 262.488281 L 125.960938 261.597656 C 125.984375 261.59375 126 261.570312 125.996094 261.542969 Z M 121.953125 261.910156 C 121.945312 261.90625 121.933594 261.902344 121.921875 261.902344 L 120.589844 261.984375 L 121.964844 256.863281 L 122.558594 262.335938 Z M 122.390625 262.34375 L 120.945312 262.066406 L 121.910156 262.007812 Z M 122.671875 262.375 L 122.046875 256.625 L 125.046875 256.417969 L 125.882812 261.511719 Z M 124.570312 256.742188 C 124.566406 256.695312 124.546875 256.652344 124.511719 256.625 C 124.472656 256.59375 124.429688 256.578125 124.382812 256.582031 L 123.03125 256.683594 C 122.933594 256.691406 122.863281 256.777344 122.871094 256.875 L 122.878906 256.992188 C 122.886719 257.082031 122.960938 257.152344 123.054688 257.152344 C 123.058594 257.152344 123.0625 257.152344 123.066406 257.152344 L 124.417969 257.046875 C 124.515625 257.039062 124.585938 256.957031 124.578125 256.859375 Z M 124.457031 256.917969 C 124.445312 256.933594 124.429688 256.941406 124.410156 256.941406 L 123.058594 257.046875 C 123.019531 257.050781 122.988281 257.019531 122.984375 256.984375 L 122.976562 256.867188 C 122.972656 256.828125 123 256.796875 123.039062 256.792969 L 124.390625 256.6875 C 124.390625 256.6875 124.394531 256.6875 124.394531 256.6875 C 124.410156 256.6875 124.429688 256.695312 124.441406 256.703125 C 124.453125 256.714844 124.460938 256.730469 124.464844 256.75 L 124.472656 256.867188 C 124.476562 256.886719 124.46875 256.902344 124.457031 256.917969 Z M 124.457031 256.917969 " fill-opacity="1" fill-rule="nonzero"/></g><path fill="#000000" d="M 357.726562 298.792969 L 341.503906 128.308594 C 340.234375 114.949219 329.082031 104.820312 315.644531 104.820312 L 279.835938 104.820312 L 279.835938 94.691406 C 279.835938 43.917969 238.515625 2.644531 187.6875 2.644531 C 136.859375 2.644531 95.539062 43.917969 95.539062 94.691406 L 95.539062 104.820312 L 59.730469 104.820312 C 46.292969 104.820312 35.140625 114.886719 33.871094 128.308594 L 17.648438 298.792969 C 15.8125 317.785156 22.148438 336.714844 35.015625 350.832031 C 47.816406 364.949219 66.132812 372.988281 85.207031 372.988281 L 290.230469 372.988281 C 309.308594 372.988281 327.621094 364.886719 340.425781 350.832031 C 353.226562 336.714844 359.5625 317.722656 357.726562 298.792969 Z M 111.382812 94.691406 C 111.382812 52.65625 145.605469 18.46875 187.6875 18.46875 C 229.769531 18.46875 263.992188 52.65625 263.992188 94.691406 L 263.992188 104.820312 L 111.382812 104.820312 Z M 279.835938 185.980469 C 279.835938 236.753906 238.515625 278.027344 187.6875 278.027344 C 136.859375 278.027344 95.539062 236.753906 95.539062 185.980469 L 95.539062 167.9375 C 95.539062 163.570312 99.085938 160.023438 103.460938 160.023438 C 107.832031 160.023438 111.382812 163.570312 111.382812 167.9375 L 111.382812 185.980469 C 111.382812 228.015625 145.605469 262.203125 187.6875 262.203125 C 229.769531 262.203125 263.992188 228.015625 263.992188 185.980469 L 263.992188 167.9375 C 263.992188 163.570312 267.542969 160.023438 271.914062 160.023438 C 276.289062 160.023438 279.835938 163.570312 279.835938 167.9375 Z M 279.835938 185.980469 " fill-opacity="1" fill-rule="nonzero"/></svg>